<?xml version="1.0" standalone="no"?>
<!DOCTYPE svg PUBLIC "-//W3C//DTD SVG 20010904//EN"
 "http://www.w3.org/TR/2001/REC-SVG-20010904/DTD/svg10.dtd">
<svg version="1.0" xmlns="http://www.w3.org/2000/svg"
 width="512.000000pt" height="512.000000pt" viewBox="0 0 512.000000 512.000000"
 preserveAspectRatio="xMidYMid meet">
<metadata>
Created by potrace 1.11, written by Peter Selinger 2001-2013
</metadata>
<g transform="translate(0.000000,512.000000) scale(0.100000,-0.100000)"
fill="#000000" stroke="none">
<path d="M2271 4684 c-461 -63 -884 -275 -1222 -613 -343 -343 -552 -764 -614
-1234 -17 -135 -20 -412 -5 -537 57 -472 259 -899 586 -1240 326 -339 741
-558 1210 -637 151 -25 543 -25 689 0 475 83 889 302 1211 641 304 319 493
696 571 1141 24 142 25 548 0 690 -82 474 -299 884 -638 1210 -340 326 -767
528 -1239 585 -118 14 -425 11 -549 -6z m340 -339 c68 -69 125 -128 127 -133
1 -4 -15 -25 -37 -46 -47 -46 -37 -52 -191 106 l-114 118 39 40 c21 22 42 40
45 40 4 0 62 -56 131 -125z m-1011 -430 c0 -6 -58 -69 -130 -140 l-130 -129
-45 44 c-25 24 -45 47 -45 50 0 3 59 65 131 139 l131 133 44 -43 c24 -24 44
-48 44 -54z m1087 -177 l133 -132 -42 -43 c-23 -24 -47 -43 -53 -43 -6 0 -69
58 -140 130 l-129 130 44 45 c24 25 47 45 49 45 3 0 65 -60 138 -132z m1498
92 l38 -39 -19 -37 c-20 -37 -221 -234 -239 -234 -6 0 -30 20 -54 44 l-44 45
82 88 c73 79 177 173 191 173 3 0 23 -18 45 -40z m-603 -141 l41 -41 -129
-129 c-71 -71 -134 -129 -140 -129 -7 0 -28 19 -49 41 l-37 42 128 128 c71 71
133 129 137 129 5 0 27 -18 49 -41z m-1754 -402 l42 -43 -133 -132 -133 -132
-44 45 -44 45 129 130 c71 72 132 130 135 130 3 0 25 -19 48 -43z m2695 -5
l37 -38 -35 -34 c-19 -19 -35 -39 -35 -45 0 -6 -43 -53 -95 -104 l-95 -93 -43
48 -44 48 21 30 c48 70 213 225 241 226 6 0 28 -17 48 -38z m-1789 -82 c470
-120 663 -688 361 -1066 -268 -334 -763 -339 -1042 -10 -152 178 -196 451
-109 667 73 181 205 312 386 386 81 32 127 41 236 42 61 1 116 -5 168 -19z
m-2074 -355 l-130 -130 -42 43 -43 42 130 130 129 130 43 -42 43 -43 -130
-130z m3206 -10 c59 -29 117 -89 145 -150 10 -22 23 -81 29 -130 19 -158 78
-250 197 -311 52 -26 68 -29 153 -29 73 0 103 4 128 18 19 10 36 17 38 15 2
-3 -6 -53 -17 -113 -39 -205 -155 -489 -277 -675 -257 -392 -619 -673 -1057
-819 -315 -105 -681 -129 -995 -65 -93 19 -293 106 -424 185 -360 218 -653
541 -826 912 -33 70 -120 307 -120 326 0 3 51 6 113 7 97 0 121 4 182 28 135
52 230 135 297 256 46 84 56 116 67 225 8 85 11 91 45 122 41 38 95 44 146 18
42 -22 56 -57 64 -159 16 -216 135 -444 303 -577 228 -182 512 -233 776 -139
45 16 120 36 167 45 280 54 518 290 576 572 26 125 13 312 -30 414 -5 11 3 20
31 33 89 40 197 36 289 -9z m-2709 -352 l-47 -48 -135 135 -135 135 47 47 48
48 135 -135 135 -135 -48 -47z m3238 206 l50 -50 -135 -129 c-74 -71 -140
-129 -145 -130 -6 0 -28 18 -50 40 l-38 39 109 116 c60 64 118 127 128 140 11
14 23 25 26 25 3 0 28 -23 55 -51z"/>
<path d="M2363 223 c9 -2 23 -2 30 0 6 3 -1 5 -18 5 -16 0 -22 -2 -12 -5z"/>
<path d="M2738 223 c6 -2 18 -2 25 0 6 3 1 5 -13 5 -14 0 -19 -2 -12 -5z"/>
</g>
</svg>
